<?xml version="1.0" encoding="UTF-8" ?>
<!DOCTYPE svg PUBLIC "-//W3C//DTD SVG 1.1//EN" "http://www.w3.org/Graphics/SVG/1.1/DTD/svg11.dtd">
<svg width="110pt" height="167pt" viewBox="0 0 110 167" version="1.1" xmlns="http://www.w3.org/2000/svg" preserveAspectRatio="meet">
<path fill="#4e9a06" d=" M 42.04 11.08 C 44.49 10.02 46.89 8.84 49.17 7.46 C 54.47 17.64 57.48 28.85 60.01 40.00 C 61.77 49.31 62.91 58.78 62.43 68.27 C 62.36 70.39 62.29 72.52 62.21 74.65 C 59.00 74.93 55.85 75.66 52.87 76.91 C 51.72 74.32 50.59 71.72 49.26 69.21 C 40.84 53.08 24.62 41.14 6.60 38.34 C 6.97 35.59 7.45 32.86 7.68 30.09 C 22.31 32.59 36.33 39.87 46.15 51.09 C 39.02 38.32 29.82 26.82 19.67 16.32 C 18.79 15.53 18.25 14.50 17.90 13.39 C 19.71 11.71 21.41 9.92 23.11 8.12 C 34.56 19.38 44.63 32.14 52.69 46.04 C 51.25 33.87 46.78 22.30 42.04 11.08 Z" />
<path fill="#a40000" d=" M 62.21 74.65 C 62.29 72.52 62.36 70.39 62.43 68.27 C 74.94 67.86 88.09 72.99 95.69 83.20 C 99.36 88.05 101.15 93.97 102.16 99.88 C 103.03 113.85 101.45 128.36 95.02 140.97 C 89.81 150.76 81.61 159.37 71.09 163.35 C 59.38 159.14 48.49 152.13 40.80 142.21 C 31.82 131.15 27.02 117.17 25.48 103.12 C 24.61 94.11 27.82 84.69 34.48 78.46 C 38.00 74.98 42.47 72.75 46.94 70.77 C 47.60 70.67 48.91 70.47 49.56 70.38 L 49.26 69.21 C 50.59 71.72 51.72 74.32 52.87 76.91 C 55.85 75.66 59.00 74.93 62.21 74.65 Z" />
<path fill="#ffffff" d=" M 96.25 123.06 C 96.51 122.76 97.03 122.15 97.29 121.84 C 96.34 137.36 86.19 151.54 72.51 158.58 C 70.56 158.81 68.80 157.55 67.02 156.93 C 55.49 151.99 45.23 143.18 40.62 131.28 C 44.02 131.53 47.46 131.45 50.81 132.16 C 56.84 132.26 62.94 132.75 68.91 131.68 C 78.54 130.86 87.62 127.19 96.25 123.06 Z" />
</svg>
