<?xml version="1.0" encoding="utf-8"?>
<!-- Generator: Adobe Illustrator 16.0.0, SVG Export Plug-In . SVG Version: 6.00 Build 0)  -->
<!DOCTYPE svg PUBLIC "-//W3C//DTD SVG 1.1//EN" "http://www.w3.org/Graphics/SVG/1.1/DTD/svg11.dtd">
<svg version="1.1"
	 id="svg2" xmlns:inkscape="http://www.inkscape.org/namespaces/inkscape" xmlns:sodipodi="http://sodipodi.sourceforge.net/DTD/sodipodi-0.dtd" xmlns:svg="http://www.w3.org/2000/svg" xmlns:rdf="http://www.w3.org/1999/02/22-rdf-syntax-ns#" xmlns:dc="http://purl.org/dc/elements/1.1/" xmlns:cc="http://creativecommons.org/ns#" sodipodi:docname="banner_refresh.svg" inkscape:version="0.91 r13725"
	 xmlns="http://www.w3.org/2000/svg" xmlns:xlink="http://www.w3.org/1999/xlink" x="0px" y="0px" width="36px" height="36px"
	 viewBox="0 0 36 36" enable-background="new 0 0 36 36" xml:space="preserve">
<path id="path5" inkscape:connector-curvature="0" fill="#585858" d="M33,36H3c-1.7,0-3-1.3-3-3V5c0-1.7,1.3-3,3-3h30
	c1.7,0,3,1.3,3,3v28C36,34.7,34.7,36,33,36z M3,4C2.4,4,2,4.4,2,5v28c0,0.6,0.4,1,1,1h30c0.6,0,1-0.4,1-1V5c0-0.6-0.4-1-1-1H3z"/>
<g>
	<path id="path6" inkscape:connector-curvature="0" fill="#585858" d="M12,28.884l2.167-3.757l2.167-3.76H12L7.667,21.37L12,28.884z
		"/>
	<rect x="10.25" y="9.117" fill="#585858" width="3.5" height="13.688"/>
</g>
<g>
	<path id="path6_1_" inkscape:connector-curvature="0" fill="#585858" d="M19.666,16.631L24,16.634h4.334l-2.168-3.76L24,9.117
		L19.666,16.631z"/>
	<rect x="22.25" y="15.196" fill="#585858" width="3.5" height="13.688"/>
</g>
</svg>
