<?xml version="1.0" encoding="utf-8"?>
<!-- Generator: Adobe Illustrator 16.0.0, SVG Export Plug-In . SVG Version: 6.00 Build 0)  -->
<!DOCTYPE svg PUBLIC "-//W3C//DTD SVG 1.1//EN" "http://www.w3.org/Graphics/SVG/1.1/DTD/svg11.dtd">
<svg version="1.1" id="Layer_2" xmlns="http://www.w3.org/2000/svg" xmlns:xlink="http://www.w3.org/1999/xlink" x="0px" y="0px"
    xmlns:inkscape="http://www.inkscape.org/namespaces/inkscape"
	 width="36px" height="36px" viewBox="0 0 36 36" enable-background="new 0 0 36 36" xml:space="preserve">
<path id="path5_1_" inkscape:connector-curvature="0" fill="#585858" d="M33,36H3c-1.7,0-3-1.3-3-3V5c0-1.7,1.3-3,3-3h30
	c1.7,0,3,1.3,3,3v28C36,34.7,34.7,36,33,36z M3,4C2.4,4,2,4.4,2,5v28c0,0.6,0.4,1,1,1h30c0.6,0,1-0.4,1-1V5c0-0.6-0.4-1-1-1H3z"/>
<path fill="none" stroke="#585858" stroke-width="3" stroke-miterlimit="10" d="M25.916,18.218l-0.117,0.002l-0.002-0.096
	c-0.028-1.735-0.731-3.361-1.977-4.579c-1.247-1.22-2.898-1.892-4.644-1.892c-2.613,0-4.991,1.537-6.056,3.915l-0.037,0.086
	l-0.088-0.037c-0.311-0.134-0.64-0.201-0.98-0.201c-1.371,0-2.487,1.11-2.487,2.477c0,0.086,0.005,0.176,0.016,0.267l0.009,0.091
	l-0.09,0.014c-0.956,0.145-1.831,0.63-2.467,1.357C6.354,20.359,6,21.307,6,22.283c0,2.238,1.833,4.065,4.084,4.065h15.832
	c2.252,0,4.084-1.827,4.084-4.065C30,20.043,28.168,18.218,25.916,18.218z"/>
</svg>
